<svg xmlns="http://www.w3.org/2000/svg" width="1920" height="880" preserveAspectRatio="xMidYMid" style="z-index:1;margin-right:-2px;display:block;background-color:#fff;animation-play-state:paused"><g style="transform:matrix(1,0,0,1,0,0);animation-play-state:paused"><linearGradient id="a" x1="0" x2="1" y1="0" y2="0" style="animation-play-state:paused"><stop offset="0" stop-color="#24a3ff" style="animation-play-state:paused"/><stop offset="1" stop-color="#93dbe9" style="animation-play-state:paused"/></linearGradient><path fill="url(#a)" d="M0 839.453q192-124.325 384-129.308t384 17.69 384 1.142 384-51.162 384 7.846V201.694q-192 46.938-384 39.891t-384-10.592-384-48.499-384-75.227T0 37.001Z" opacity=".4" style="opacity:.4;animation-play-state:paused"/><path fill="url(#a)" d="M0 840.605q192-35.468 384-42.757t384-62.67 384-62.985 384-11.062 384-45.601V244.905q-192-11.602-384-20.598t-384-16.443-384-34.896-384-22.335T0 115.706Z" opacity=".4" style="opacity:.4;animation-play-state:paused"/><path fill="url(#a)" d="M0 802.554q192-6.451 384-8.296t384-44.109 384-38.194 384-44.458 384-53.778V234.191q-192-31.827-384-36.801t-384-29.07-384-41.309-384-2.391T0 59.332Z" opacity=".4" style="opacity:.4;animation-play-state:paused"/><path fill="url(#a)" d="M0 790.927q192-48.276 384-54.984t384-40.249 384 17.009 384-39.772 384-76.578V252.857q-192 9.033-384 1.222t-384-34.562T768 116.88 384 80.35 0 75.934Z" opacity=".4" style="opacity:.4;animation-play-state:paused"/></g></svg>